<?xml version="1.0" encoding="UTF-8" standalone="no"?>
<svg
   xmlns:dc="http://purl.org/dc/elements/1.1/"
   xmlns:cc="http://creativecommons.org/ns#"
   xmlns:rdf="http://www.w3.org/1999/02/22-rdf-syntax-ns#"
   xmlns:svg="http://www.w3.org/2000/svg"
   xmlns="http://www.w3.org/2000/svg"
   xmlns:sodipodi="http://sodipodi.sourceforge.net/DTD/sodipodi-0.dtd"
   xmlns:inkscape="http://www.inkscape.org/namespaces/inkscape"
   version="1.1"
   x="0px"
   y="0px"
   viewBox="0 0 100 125"
   enable-background="new 0 0 100 100"
   xml:space="preserve"
   id="svg16"
   sodipodi:docname="noun_dispatch_736227.svg"
   inkscape:version="0.92.4 (5da689c313, 2019-01-14)"><metadata
     id="metadata22"><rdf:RDF><cc:Work
         rdf:about=""><dc:format>image/svg+xml</dc:format><dc:type
           rdf:resource="http://purl.org/dc/dcmitype/StillImage" /></cc:Work></rdf:RDF></metadata><defs
     id="defs20" /><sodipodi:namedview
     pagecolor="#ffffff"
     bordercolor="#666666"
     borderopacity="1"
     objecttolerance="10"
     gridtolerance="10"
     guidetolerance="10"
     inkscape:pageopacity="0"
     inkscape:pageshadow="2"
     inkscape:window-width="640"
     inkscape:window-height="480"
     id="namedview18"
     showgrid="false"
     inkscape:zoom="1.888"
     inkscape:cx="50"
     inkscape:cy="62.5"
     inkscape:window-x="70"
     inkscape:window-y="27"
     inkscape:window-maximized="0"
     inkscape:current-layer="svg16" /><path
     d="M35.2,27.1V13h-1.8h-1.8h-6.3V9c0-2.5-2.3-4.5-5.1-4.5H9.6c-2.8,0-5.1,2-5.1,4.5V21c0,2.5,2.3,4.5,5.1,4.5h10.9  c2.8,0,5.1-2,5.1-4.5v-4h6.3v10.1h-4.3l6,9.3l6-9.3H35.2z M22.5,21c0,0.8-0.9,1.5-2.1,1.5H9.6c-1.1,0-2.1-0.7-2.1-1.5V9  c0-0.8,0.9-1.5,2.1-1.5h10.9c1.1,0,2.1,0.7,2.1,1.5V21z"
     id="path2" /><path
     d="M90.4,74.5H79.5c-2.8,0-5.1,2-5.1,4.5V91c0,2.5,2.3,4.5,5.1,4.5h10.9c2.8,0,5.1-2,5.1-4.5V79C95.5,76.5,93.2,74.5,90.4,74.5  z M92.5,91c0,0.8-0.9,1.5-2.1,1.5H79.5c-1.1,0-2.1-0.7-2.1-1.5V79c0-0.8,0.9-1.5,2.1-1.5h10.9c1.1,0,2.1,0.7,2.1,1.5V91z"
     id="path4" /><path
     d="M54.4,74.5H43.5c-2.8,0-5.1,2-5.1,4.5V91c0,2.5,2.3,4.5,5.1,4.5h10.9c2.8,0,5.1-2,5.1-4.5V79C59.5,76.5,57.2,74.5,54.4,74.5  z M56.5,91c0,0.8-0.9,1.5-2.1,1.5H43.5c-1.1,0-2.1-0.7-2.1-1.5V79c0-0.8,0.9-1.5,2.1-1.5h10.9c1.1,0,2.1,0.7,2.1,1.5V91z"
     id="path6" /><path
     d="M20.4,74.5H9.5c-2.8,0-5.1,2-5.1,4.5V91c0,2.5,2.3,4.5,5.1,4.5h10.9c2.8,0,5.1-2,5.1-4.5V79C25.5,76.5,23.2,74.5,20.4,74.5z   M22.5,91c0,0.8-0.9,1.5-2.1,1.5H9.5c-1.1,0-2.1-0.7-2.1-1.5V79c0-0.8,0.9-1.5,2.1-1.5h10.9c1.1,0,2.1,0.7,2.1,1.5V91z"
     id="path8" /><path
     d="M85.7,62.6V48h-2.3h-1.3h-5.8v-5c0-2.2-1.4-3.5-3.8-3.5H59.5h-3h-14h-3h-13c-2.9,0-4,1.8-4,3.5v5h-5.8h-1.3h-2.3v14.6H9  l6,9.3l6-9.3h-4.3V52h5.8v5c0,1.6,1.1,3.5,4.1,3.5h12.9h3h4.4v2h-4.3l6,9.3l6-9.3h-4.3v-2h6.1h3h13.2c2.4,0,3.8-1.3,3.8-3.5v-5h5.8  v10.6H78l6,9.3l6-9.3H85.7z M39.5,57.5H26.6c-1.1,0-1.1-0.4-1.1-0.5V43c0-0.3,0-0.5,1-0.5h13V57.5z M56.5,57.5h-14v-15h14V57.5z   M73.5,57c0,0.3,0,0.4,0,0.4c0,0-0.2,0.1-0.7,0.1H59.5v-15h13.2c0.6,0,0.8,0.1,0.8,0.1c0,0,0,0,0,0c0,0,0.1,0.1,0.1,0.4V57z"
     id="path10" /></svg>