<?xml version="1.0" encoding="UTF-8" standalone="no"?>
<svg
   xmlns:dc="http://purl.org/dc/elements/1.1/"
   xmlns:cc="http://creativecommons.org/ns#"
   xmlns:rdf="http://www.w3.org/1999/02/22-rdf-syntax-ns#"
   xmlns:svg="http://www.w3.org/2000/svg"
   xmlns="http://www.w3.org/2000/svg"
   xmlns:sodipodi="http://sodipodi.sourceforge.net/DTD/sodipodi-0.dtd"
   xmlns:inkscape="http://www.inkscape.org/namespaces/inkscape"
   viewBox="0 0 64 80"
   x="0px"
   y="0px"
   version="1.1"
   id="svg46"
   sodipodi:docname="noun_meter_3018476.svg"
   inkscape:version="0.92.4 (5da689c313, 2019-01-14)">
  <metadata
     id="metadata52">
    <rdf:RDF>
      <cc:Work
         rdf:about="">
        <dc:format>image/svg+xml</dc:format>
        <dc:type
           rdf:resource="http://purl.org/dc/dcmitype/StillImage" />
      </cc:Work>
    </rdf:RDF>
  </metadata>
  <defs
     id="defs50" />
  <sodipodi:namedview
     pagecolor="#ffffff"
     bordercolor="#666666"
     borderopacity="1"
     objecttolerance="10"
     gridtolerance="10"
     guidetolerance="10"
     inkscape:pageopacity="0"
     inkscape:pageshadow="2"
     inkscape:window-width="1133"
     inkscape:window-height="809"
     id="namedview48"
     showgrid="false"
     inkscape:zoom="2.95"
     inkscape:cx="32"
     inkscape:cy="40"
     inkscape:window-x="70"
     inkscape:window-y="27"
     inkscape:window-maximized="0"
     inkscape:current-layer="svg46" />
  <g
     id="g40">
    <path
       d="M62,23a3,3,0,0,0-3-3H58V2H56V20H55a2.993,2.993,0,0,0-1,5.816V49a1,1,0,0,0,1,1h1v4H46V50h1a1,1,0,0,0,1-1V25.816A2.993,2.993,0,0,0,47,20H46V2H44V20H43a2.993,2.993,0,0,0-1,5.816V49a1,1,0,0,0,1,1h1v4H38V5a3,3,0,0,0-3-3H5A3,3,0,0,0,2,5V59a3,3,0,0,0,3,3H45a1,1,0,0,0,1-1V56H57a1,1,0,0,0,1-1V50h1a1,1,0,0,0,1-1V25.816A3,3,0,0,0,62,23ZM44,48V26h2V48ZM43,22h4a1,1,0,0,1,0,2H43a1,1,0,0,1,0-2ZM7,55a1,1,0,1,1,1,1A1,1,0,0,1,7,55Zm2,5V57.816a3,3,0,1,0-2,0V60H5a1,1,0,0,1-1-1V5A1,1,0,0,1,5,4H35a1,1,0,0,1,1,1V54H34.816a3,3,0,1,0,0,2H36v3a1,1,0,0,1-1,1Zm23-4a1,1,0,1,1,1-1A1,1,0,0,1,32,56Zm12,4H37.816A2.966,2.966,0,0,0,38,59V56h6ZM56,48V26h2V48Zm3-24H55a1,1,0,0,1,0-2h4a1,1,0,0,1,0,2Z"
       id="path2" />
    <path
       d="M7,24H33a1,1,0,0,0,1-1V7a1,1,0,0,0-1-1H7A1,1,0,0,0,6,7V23A1,1,0,0,0,7,24ZM8,8H32V22H8Z"
       id="path4" />
    <path
       d="M20,29A12,12,0,1,0,32,41,12.013,12.013,0,0,0,20,29Zm0,22A10,10,0,1,1,30,41,10.011,10.011,0,0,1,20,51Z"
       id="path6" />
    <path
       d="M22,33H18a1,1,0,0,0-1,1V48a1,1,0,0,0,1,1h4a1,1,0,0,0,1-1V34A1,1,0,0,0,22,33ZM21,47H19V35h2Z"
       id="path8" />
    <rect
       x="19"
       y="26"
       width="2"
       height="2"
       id="rect10" />
    <rect
       x="26"
       y="27.875"
       width="1.999"
       height="2"
       transform="translate(-11.508 37.815) rotate(-59.991)"
       id="rect12" />
    <rect
       x="31.125"
       y="33"
       width="1.999"
       height="2"
       transform="translate(-12.698 20.624) rotate(-30.009)"
       id="rect14" />
    <rect
       x="33"
       y="40"
       width="2"
       height="2"
       id="rect16" />
    <rect
       x="31.124"
       y="47"
       width="2"
       height="1.999"
       transform="translate(-25.508 51.812) rotate(-59.991)"
       id="rect18" />
    <rect
       x="26"
       y="52.125"
       width="2"
       height="1.999"
       transform="translate(-22.95 20.625) rotate(-30.009)"
       id="rect20" />
    <rect
       x="19"
       y="54"
       width="2"
       height="2"
       id="rect22" />
    <rect
       x="12"
       y="52.124"
       width="1.999"
       height="2"
       transform="translate(-39.509 37.825) rotate(-60.005)"
       id="rect24" />
    <rect
       x="6.876"
       y="47"
       width="1.999"
       height="2"
       transform="translate(-22.941 10.366) rotate(-29.995)"
       id="rect26" />
    <rect
       x="5"
       y="40"
       width="2"
       height="2"
       id="rect28" />
    <rect
       x="6.875"
       y="33"
       width="2"
       height="1.999"
       transform="translate(-25.508 23.823) rotate(-60.005)"
       id="rect30" />
    <rect
       x="12"
       y="27.876"
       width="2"
       height="1.999"
       transform="translate(-12.694 10.366) rotate(-29.995)"
       id="rect32" />
    <path
       d="M17,10H11a1,1,0,0,0-1,1v8a1,1,0,0,0,1,1h6a1,1,0,0,0,1-1V11A1,1,0,0,0,17,10Zm-1,8H12V12h4Z"
       id="path34" />
    <path
       d="M29,10H23a1,1,0,0,0-1,1v8a1,1,0,0,0,1,1h6a1,1,0,0,0,1-1V11A1,1,0,0,0,29,10Zm-1,8H24V12h4Z"
       id="path36" />
    <rect
       x="19"
       y="18"
       width="2"
       height="2"
       id="rect38" />
  </g>
</svg>
