<?xml version="1.0" encoding="UTF-8" standalone="no"?>
<svg
   xmlns:dc="http://purl.org/dc/elements/1.1/"
   xmlns:cc="http://creativecommons.org/ns#"
   xmlns:rdf="http://www.w3.org/1999/02/22-rdf-syntax-ns#"
   xmlns:svg="http://www.w3.org/2000/svg"
   xmlns="http://www.w3.org/2000/svg"
   xmlns:sodipodi="http://sodipodi.sourceforge.net/DTD/sodipodi-0.dtd"
   xmlns:inkscape="http://www.inkscape.org/namespaces/inkscape"
   version="1.0"
   x="0px"
   y="0px"
   viewBox="0 0 100 125"
   enable-background="new 0 0 100 100"
   xml:space="preserve"
   id="svg10"
   sodipodi:docname="noun_system_1644830.svg"
   inkscape:version="0.92.4 (5da689c313, 2019-01-14)"><metadata
     id="metadata16"><rdf:RDF><cc:Work
         rdf:about=""><dc:format>image/svg+xml</dc:format><dc:type
           rdf:resource="http://purl.org/dc/dcmitype/StillImage" /></cc:Work></rdf:RDF></metadata><defs
     id="defs14" /><sodipodi:namedview
     pagecolor="#ffffff"
     bordercolor="#666666"
     borderopacity="1"
     objecttolerance="10"
     gridtolerance="10"
     guidetolerance="10"
     inkscape:pageopacity="0"
     inkscape:pageshadow="2"
     inkscape:window-width="640"
     inkscape:window-height="480"
     id="namedview12"
     showgrid="false"
     inkscape:zoom="1.888"
     inkscape:cx="50"
     inkscape:cy="62.5"
     inkscape:window-x="70"
     inkscape:window-y="27"
     inkscape:window-maximized="0"
     inkscape:current-layer="svg10" /><path
     d="M16.7916203,25.1253719c-2.8189726-1.6325703,1.0241585-4.8470116,2.2511215-6.0739746  c6.7330875-6.7330856,4.4414043-1.3283634,9.0146294-0.233223c4.0864964,0.9734573,7.4834614-3.2955627,5.5669651-7.0677128  c-1.3993454-2.7378511,3.0927582-3.5186462,5.0396729-4.0459361c9.1971512-2.4539261,4.5123863,1.0748601,7.9296303,4.3197207  c3.1130371,2.9507952,8.1729927,0.7402344,8.3453751-3.275281c0.141964-3.0724778,4.2284584-1.6224308,6.3883209-1.0444398  c1.9570541,0.5272899,6.4491615,1.308085,5.0498161,4.0459361c-2.8899574,5.6683655,5.3742981,10.0083675,8.4974747,5.0396748  c1.6629944-2.6465902,4.5326691,0.6489716,6.1855164,2.3626633c1.5413132,1.60215,4.8165894,4.2994404,2.1497192,5.9725723  c-5.0498123,3.1637383-0.4867249,11.387434,4.999115,8.5278988c2.707428-1.4196243,3.5085068,2.8595352,4.0864944,5.0092545  c2.4539261,9.1971512-1.0748596,4.5123863-4.3197174,7.9296303c-2.950798,3.1130371-0.7402344,8.1729927,3.2752838,8.3453751  c3.0724716,0.141964,1.6224289,4.2284584,1.0444336,6.3984604c-0.5272903,1.9469147-1.3080826,6.4390182-4.045929,5.0396729  c-5.6785126-2.8899536-10.0185089,5.3742981-5.0396805,8.4974823c3.2144394,2.0178986-2.2511215,5.5872421-2.2511215,6.0841141  c-6.7330856,6.7229462-4.4413986,1.318222-9.0146255,0.2230835c-4.2081833-1.0038834-7.4530411,3.4679413-5.5973892,7.027153  c1.419632,2.7175674-2.8696709,3.5084991-5.0193901,4.0864944c-9.1870117,2.4539261-4.5022469-1.0748596-7.9194908-4.319725  c-3.1130371-2.9507904-8.1729927-0.7402344-8.3555145,3.2854233c-0.1318245,3.0623398-4.2183189,1.6122894-6.3883209,1.0343018  c-1.9469147-0.5272903-6.4390182-1.3080826-5.0396729-4.0459366c2.8899536-5.6785049-5.3743019-10.0185089-8.4974804-5.0396729  c-1.6629906,2.6465912-4.4211216-0.5982742-6.0841141-2.261261v0.0101395  c-6.7229452-6.7330856-1.318224-4.4414063-0.2230835-9.0146332c0.9734573-4.0864944-3.3057022-7.4834595-7.0677128-5.5669632  c-2.7378511,1.3993454-3.5287857-3.0927582-4.0459356-5.0498123c-2.4539256-9.1870155,1.0748606-4.5022469,4.3197212-7.9194908  c2.9507952-3.1130371,0.7402334-8.1729927-3.2854214-8.3453751c-3.0623374-0.141964-1.6122904-4.2284584-1.0342999-6.3984604  c2.4539261-9.1667309,3.18402-3.3665428,7.7065449-4.7050476C19.4077892,32.7710762,20.2190037,27.4576149,16.7916203,25.1253719z   M21.8718548,21.8703709c-0.4360275,0.4360275-0.8517761,0.872057-1.2573833,1.3283653  c5.8306103,6.4085999-0.0709801,16.619772-8.5380392,14.7438374l-0.943038,3.5287857  c8.274395,2.6263084,8.274395,14.4294891,0,17.0557976l0.943038,3.5186462  c8.4670591-1.8556557,14.3686495,8.3453789,8.5278997,14.7641182c0.4157467,0.446167,0.8314953,0.8821945,1.2675228,1.318222l0,0  c0.4258881,0.4258881,0.8619175,0.8517761,1.3182259,1.2675247c2.8392525-2.5857468,7.0879917-3.1028976,10.4950962-1.135704l0,0  c3.417244,1.9773407,5.090374,5.9117355,4.2690201,9.6636047l3.5186462,0.9430389  c2.6263084-8.2743988,14.4294891-8.2743988,17.0557976,0l3.5186462-0.9430389  c-0.8314934-3.7620087,0.8517761-7.686264,4.2690201-9.6636047l0,0c3.396965-1.9671936,7.6457062-1.4601822,10.4849548,1.1255646  c0.446167-0.4056091,0.8923416-0.8314972,1.3283691-1.2573853l0,0c0.4258881-0.4258881,0.8517761-0.8619156,1.2573853-1.318222  c-5.8407516-6.4187393,0.0709763-16.6197739,8.5380325-14.7641182l0.9430389-3.5186462  c-8.2743912-2.6263084-8.2845306-14.4294891,0-17.0557976l-0.9430389-3.5287857  c-8.4670563,1.8759346-14.3686447-8.3352375-8.5380325-14.7539787l-2.5857544-2.5756073  c-6.4085999,5.8306084-16.6096306-0.070982-14.7539749-8.5380402l-3.5186462-0.943038  c-2.6263084,8.2743959-14.4294891,8.2845354-17.0557976,0l-3.5186462,0.943038  c0.8213539,3.7518702-0.8517761,7.686264-4.2690201,9.6636009l0,0c-3.4071045,1.9671974-7.6558437,1.4601879-10.4950962-1.1255608  C22.7439117,21.0185947,22.3078842,21.4444828,21.8718548,21.8703709z"
     id="path2" /><path
     d="M50.0007439,35.214859c13.1214027,0,19.7429466,15.9403801,10.4545326,25.2389336  c-9.2985535,9.2884178-25.2389297,2.6770096-25.2389297-10.4545364  C35.2163467,41.8364029,41.8378906,35.214859,50.0007439,35.214859z M57.6261635,42.3738365  c-6.7736435-6.7736473-18.4145851-1.957058-18.4145851,7.6254196S50.85252,64.3983307,57.6261635,57.6246796  C61.834343,53.4165001,61.834343,46.5820122,57.6261635,42.3738365z"
     id="path4" /></svg>